<svg xmlns="http://www.w3.org/2000/svg" xmlns:xlink="http://www.w3.org/1999/xlink" width="500" zoomAndPan="magnify" viewBox="0 0 375 374.999991" height="500" preserveAspectRatio="xMidYMid meet" version="1.0"><defs><clipPath id="cbcfee615e"><path d="M 106.902344 116 L 268 116 L 268 196.828125 L 106.902344 196.828125 Z M 106.902344 116 " clip-rule="nonzero"/></clipPath></defs><g clip-path="url(#cbcfee615e)"><path fill="#000000" d="M 267.265625 158.253906 C 266.109375 151.597656 262.6875 145.5 261.527344 138.820312 C 260.910156 135.6875 260.914062 132.484375 261.214844 129.3125 C 261.457031 125.691406 261.855469 120.601562 259.359375 117.675781 C 258.308594 116.457031 256.640625 115.835938 255.042969 116.109375 C 250.121094 116.992188 248.570312 122.1875 248.128906 126.523438 C 247.351562 133.414062 249.785156 138.671875 252.496094 144.785156 C 254.183594 148.648438 256.289062 152.320312 257.773438 156.273438 C 258.667969 158.589844 259.382812 161.015625 259.824219 163.464844 C 260.125 165.175781 260.402344 166.914062 260.324219 168.660156 C 260.183594 170.9375 259.414062 173.289062 258.074219 175.179688 C 256.34375 165.800781 249.203125 158.125 240.371094 154.734375 C 239.765625 154.445312 239.164062 154.179688 238.566406 153.929688 C 240.234375 152.453125 240.617188 149.839844 240.800781 147.484375 C 240.988281 145.398438 240.917969 143.273438 241.433594 141.226562 C 241.632812 140.339844 242.179688 139.5625 242.265625 138.644531 C 242.390625 135.96875 239.773438 135.535156 238.269531 137.445312 C 236.605469 139.300781 236.382812 141.699219 236.132812 144.0625 C 235.957031 145.136719 235.832031 147.828125 234.546875 148.09375 C 233.746094 148.015625 233.199219 147.304688 232.640625 146.792969 C 230.640625 144.652344 227.425781 143.570312 224.601562 144.597656 C 221.820312 145.738281 219.875 148.519531 218.960938 151.320312 C 208.9375 152.417969 199.066406 156.539062 188.988281 159.972656 C 184.476562 161.554688 180.03125 163.257812 175.574219 164.9375 C 175.585938 164.878906 175.59375 164.820312 175.605469 164.761719 C 175.820312 163.457031 176.285156 162.09375 177.019531 160.964844 C 177.863281 159.53125 179.296875 158.554688 180.113281 157.109375 C 181.257812 154.839844 180.019531 153.066406 177.476562 153.738281 C 175.070312 154.269531 173.0625 156.058594 171.75 158.089844 C 170.90625 159.457031 170.355469 160.960938 169.667969 162.410156 C 168.53125 164.898438 167.152344 166.941406 165.363281 168.65625 C 164.339844 169.007812 163.3125 169.355469 162.28125 169.691406 C 160.09375 170.433594 157.910156 170.945312 155.640625 171.414062 C 153.523438 169.964844 151.234375 168.75 148.804688 167.90625 C 143.160156 165.972656 136.855469 166.511719 131.304688 168.847656 C 130.507812 168.402344 129.707031 167.972656 128.902344 167.542969 C 126.886719 166.457031 124.894531 165.324219 122.925781 164.160156 C 122.394531 163.851562 121.863281 163.542969 121.324219 163.25 C 121.085938 163.140625 120.839844 162.957031 120.566406 163.003906 C 119.902344 163.195312 120.4375 163.921875 120.605469 164.3125 C 121.046875 165.226562 121.503906 166.128906 121.960938 167.03125 C 122.917969 168.910156 123.832031 170.816406 124.859375 172.65625 C 122.992188 174.140625 121.335938 175.871094 119.988281 177.796875 C 118.894531 179.367188 117.597656 181.800781 116.691406 184.382812 C 114.804688 184.695312 112.914062 185.007812 111.027344 185.320312 C 109.820312 185.558594 108.554688 185.628906 107.394531 186.054688 C 107.121094 186.164062 106.902344 186.46875 107.007812 186.765625 C 107.148438 187.109375 107.515625 187.277344 107.808594 187.476562 C 109.109375 188.273438 110.46875 188.972656 111.824219 189.667969 C 113.066406 190.304688 114.34375 190.90625 115.660156 191.390625 C 115.667969 191.453125 115.679688 191.511719 115.691406 191.574219 C 115.890625 196.820312 121.480469 196.28125 125.4375 195.832031 C 125.902344 195.785156 126.367188 195.742188 126.835938 195.699219 C 164.628906 194.875 202.4375 194.867188 240.242188 194.417969 C 243.121094 194.558594 245.996094 194.46875 248.859375 193.953125 C 254.46875 193.03125 257.324219 188.136719 258.183594 182.878906 C 259.277344 182.273438 260.289062 181.523438 261.210938 180.679688 C 263.566406 178.542969 265.382812 175.828125 266.398438 172.816406 C 267.917969 168.148438 268.152344 163.074219 267.265625 158.253906 Z M 267.265625 158.253906 " fill-opacity="1" fill-rule="nonzero"/></g><path fill="#ffffff" d="M 232.011719 185.546875 C 231.511719 185.613281 231.589844 184.8125 231.46875 184.5 C 231.261719 183.527344 231.101562 182.527344 230.984375 181.546875 C 230.582031 178.339844 230.472656 175.019531 231.585938 171.941406 C 231.832031 171.242188 232.15625 170.558594 232.566406 169.9375 C 233.613281 168.394531 235.464844 167.308594 237.359375 167.371094 C 238.144531 167.398438 238.960938 167.589844 239.664062 167.914062 C 239.988281 168.054688 240.28125 168.210938 240.613281 168.3125 C 241.601562 168.652344 242.464844 167.839844 242.800781 166.972656 C 243.265625 165.902344 243.234375 164.71875 243.40625 163.582031 C 243.515625 162.84375 243.683594 162.097656 244.117188 161.476562 C 245.027344 160.183594 246.851562 159.609375 248.230469 160.492188 C 249.359375 161.140625 250.128906 162.921875 249.101562 163.964844 C 248.96875 164.09375 248.777344 164.125 248.65625 164.257812 C 248.324219 164.757812 248.191406 165.332031 248.085938 165.894531 C 247.703125 168.402344 248.6875 170.960938 248.019531 173.441406 C 247.832031 174.15625 247.480469 174.867188 246.894531 175.335938 C 246.175781 175.90625 245.167969 175.996094 244.304688 175.746094 C 244.214844 175.722656 244.132812 175.675781 244.082031 175.59375 C 243.898438 175.335938 244.160156 174.960938 244.464844 175.039062 C 245.261719 175.28125 246.226562 175.164062 246.753906 174.460938 C 248.460938 172.023438 246.695312 168.226562 247.425781 165.371094 C 247.621094 164.707031 247.785156 163.863281 248.453125 163.515625 C 249.128906 163.222656 248.859375 162.148438 248.492188 161.691406 C 247.476562 160.289062 245.503906 160.617188 244.636719 161.996094 C 244.003906 163.09375 244.09375 164.410156 243.902344 165.621094 C 243.703125 167.539062 242.390625 169.800781 240.160156 168.933594 C 239.257812 168.519531 238.308594 168.109375 237.304688 168.117188 C 235.8125 168.097656 234.375 168.902344 233.433594 170.035156 C 231.125 173.339844 231.246094 177.625 231.671875 181.457031 C 231.785156 182.4375 231.9375 183.414062 232.136719 184.378906 C 232.160156 184.746094 232.5 185.410156 232.011719 185.546875 Z M 232.011719 185.546875 " fill-opacity="1" fill-rule="nonzero"/><path fill="#ffffff" d="M 181.121094 181.816406 C 180.851562 181.605469 181.019531 181.316406 181.179688 181.101562 C 181.574219 180.492188 181.949219 179.875 182.3125 179.25 C 183.339844 177.40625 184.300781 175.457031 185.675781 173.871094 C 186.628906 172.707031 187.816406 171.785156 189.035156 170.914062 C 189.792969 170.34375 190.589844 169.78125 191.128906 168.988281 C 191.59375 168.242188 191.859375 167.023438 190.972656 166.480469 C 189.722656 165.898438 188.261719 166.386719 187.039062 166.800781 C 184.835938 167.597656 182.832031 168.789062 181.089844 170.335938 C 180.042969 171.222656 179.222656 172.316406 178.414062 173.410156 C 176.988281 175.308594 175.550781 177.214844 173.96875 178.976562 C 173.210938 179.804688 172.402344 180.59375 171.570312 181.347656 C 171.109375 181.761719 170.648438 182.179688 170.160156 182.5625 C 169.976562 182.699219 169.773438 182.859375 169.535156 182.851562 C 169.117188 182.832031 169.070312 182.21875 169.523438 182.207031 C 172.449219 179.941406 174.824219 177.101562 177 174.136719 C 177.90625 172.9375 178.738281 171.671875 179.769531 170.574219 C 180.570312 169.769531 181.429688 169.042969 182.355469 168.394531 C 184.3125 167.035156 187.128906 165.617188 189.527344 165.480469 C 191.890625 165.300781 192.988281 167.09375 191.910156 169.164062 C 190.875 170.902344 188.902344 171.75 187.457031 173.097656 C 186.476562 173.992188 185.644531 175.039062 184.925781 176.152344 C 184.132812 177.382812 183.5 178.703125 182.753906 179.960938 C 182.398438 180.5625 182.019531 181.15625 181.632812 181.742188 C 181.523438 181.90625 181.273438 181.929688 181.121094 181.816406 Z M 181.121094 181.816406 " fill-opacity="1" fill-rule="nonzero"/><path fill="#ffffff" d="M 132.917969 189.570312 C 132.882812 189.804688 132.828125 190.03125 132.753906 190.253906 C 132.683594 190.257812 132.609375 190.261719 132.535156 190.269531 C 132.464844 190.273438 132.390625 190.28125 132.320312 190.289062 C 132.246094 190.296875 132.171875 190.300781 132.101562 190.3125 C 132.042969 190.316406 131.984375 190.324219 131.929688 190.332031 C 131.914062 190.332031 131.898438 190.335938 131.886719 190.339844 C 131.929688 190.234375 131.972656 190.132812 132.007812 190.027344 C 132.050781 189.898438 132.085938 189.765625 132.117188 189.632812 C 132.160156 189.628906 132.207031 189.625 132.25 189.621094 C 132.273438 189.617188 132.296875 189.613281 132.316406 189.613281 C 132.335938 189.609375 132.359375 189.609375 132.378906 189.605469 C 132.425781 189.601562 132.472656 189.597656 132.515625 189.59375 C 132.570312 189.589844 132.621094 189.585938 132.671875 189.582031 C 132.707031 189.582031 132.738281 189.578125 132.769531 189.578125 C 132.820312 189.574219 132.871094 189.570312 132.917969 189.570312 Z M 132.917969 189.570312 " fill-opacity="1" fill-rule="nonzero"/><path fill="#ffffff" d="M 135.332031 189.667969 C 135.621094 189.71875 135.707031 190.125 135.460938 190.28125 C 135.296875 190.390625 135.078125 190.304688 134.90625 190.292969 C 134.570312 190.257812 134.238281 190.234375 133.90625 190.230469 C 133.863281 190.226562 133.816406 190.226562 133.769531 190.226562 C 133.566406 190.222656 133.359375 190.226562 133.15625 190.234375 C 133.066406 190.234375 132.976562 190.238281 132.886719 190.246094 C 132.839844 190.246094 132.796875 190.25 132.753906 190.253906 C 132.679688 190.257812 132.609375 190.261719 132.535156 190.269531 C 132.464844 190.273438 132.390625 190.28125 132.316406 190.289062 C 132.246094 190.296875 132.171875 190.300781 132.101562 190.3125 C 132.042969 190.316406 131.984375 190.324219 131.929688 190.332031 C 131.914062 190.332031 131.898438 190.335938 131.886719 190.339844 C 131.84375 190.34375 131.804688 190.347656 131.761719 190.355469 C 131.722656 190.359375 131.683594 190.363281 131.648438 190.371094 C 131.554688 190.386719 131.460938 190.402344 131.367188 190.417969 C 131.320312 190.421875 131.277344 190.433594 131.230469 190.441406 C 131.007812 190.480469 130.785156 190.527344 130.566406 190.578125 C 130.511719 190.589844 130.457031 190.605469 130.398438 190.617188 C 130.332031 190.632812 130.265625 190.652344 130.199219 190.667969 C 129.984375 190.722656 129.773438 190.785156 129.5625 190.847656 C 129.535156 190.859375 129.503906 190.867188 129.472656 190.878906 C 129.414062 190.894531 129.355469 190.914062 129.296875 190.933594 C 129.230469 190.957031 129.164062 190.976562 129.097656 191 C 129.027344 191.027344 128.957031 191.050781 128.886719 191.074219 C 128.8125 191.101562 128.742188 191.128906 128.671875 191.15625 C 128.609375 191.179688 128.546875 191.203125 128.484375 191.226562 C 128.40625 191.257812 128.328125 191.289062 128.25 191.320312 C 128.179688 191.347656 128.109375 191.378906 128.039062 191.410156 C 127.90625 191.464844 127.769531 191.523438 127.636719 191.585938 C 127.5625 191.621094 127.492188 191.65625 127.421875 191.6875 C 127.351562 191.71875 127.285156 191.753906 127.21875 191.789062 C 127.203125 191.792969 127.183594 191.804688 127.171875 191.8125 C 127.117188 191.835938 127.066406 191.863281 127.015625 191.890625 C 126.953125 191.921875 126.890625 191.953125 126.824219 191.988281 C 126.761719 192.023438 126.695312 192.058594 126.628906 192.09375 C 126.574219 192.121094 126.519531 192.152344 126.464844 192.183594 C 126.394531 192.222656 126.328125 192.261719 126.261719 192.300781 C 126.226562 192.320312 126.191406 192.339844 126.160156 192.359375 C 125.664062 192.660156 125.207031 192.988281 124.769531 193.324219 C 124.625 193.417969 124.523438 193.597656 124.335938 193.609375 C 124.039062 193.632812 123.902344 193.25 124.117188 193.058594 C 124.183594 193 124.25 192.9375 124.320312 192.878906 C 124.34375 192.859375 124.367188 192.839844 124.390625 192.824219 C 124.484375 192.746094 124.578125 192.671875 124.671875 192.597656 C 124.703125 192.574219 124.734375 192.550781 124.765625 192.523438 C 124.800781 192.5 124.832031 192.476562 124.863281 192.453125 C 124.9375 192.398438 125.015625 192.34375 125.089844 192.289062 C 125.132812 192.261719 125.171875 192.234375 125.214844 192.207031 C 125.402344 192.074219 125.597656 191.949219 125.792969 191.828125 C 125.902344 191.761719 126.015625 191.695312 126.128906 191.628906 C 126.230469 191.566406 126.335938 191.511719 126.4375 191.453125 C 126.457031 191.445312 126.476562 191.433594 126.496094 191.421875 C 126.550781 191.394531 126.605469 191.367188 126.660156 191.335938 C 126.664062 191.335938 126.671875 191.332031 126.675781 191.328125 C 126.75 191.292969 126.820312 191.253906 126.894531 191.214844 C 127.117188 191.105469 127.34375 190.996094 127.574219 190.894531 C 127.589844 190.886719 127.609375 190.878906 127.628906 190.871094 C 127.695312 190.839844 127.765625 190.808594 127.832031 190.78125 C 127.90625 190.75 127.976562 190.71875 128.050781 190.6875 C 128.066406 190.683594 128.082031 190.675781 128.097656 190.667969 C 128.167969 190.640625 128.242188 190.613281 128.3125 190.585938 C 128.386719 190.554688 128.464844 190.527344 128.539062 190.496094 C 128.546875 190.496094 128.554688 190.492188 128.5625 190.488281 C 128.632812 190.460938 128.707031 190.4375 128.777344 190.410156 C 128.785156 190.40625 128.796875 190.40625 128.804688 190.402344 C 128.878906 190.375 128.949219 190.351562 129.023438 190.328125 C 129.039062 190.320312 129.054688 190.316406 129.070312 190.3125 C 129.140625 190.285156 129.214844 190.261719 129.289062 190.238281 C 129.371094 190.214844 129.453125 190.1875 129.535156 190.164062 C 129.617188 190.140625 129.699219 190.113281 129.78125 190.09375 C 129.867188 190.070312 129.949219 190.046875 130.03125 190.023438 C 130.113281 190 130.199219 189.980469 130.28125 189.960938 C 130.351562 189.941406 130.425781 189.925781 130.496094 189.910156 C 130.554688 189.894531 130.617188 189.882812 130.679688 189.871094 C 130.703125 189.863281 130.726562 189.859375 130.746094 189.855469 C 130.808594 189.84375 130.863281 189.828125 130.921875 189.820312 C 131.003906 189.800781 131.085938 189.789062 131.164062 189.773438 C 131.207031 189.765625 131.25 189.757812 131.292969 189.75 C 131.320312 189.746094 131.34375 189.742188 131.371094 189.738281 C 131.4375 189.726562 131.503906 189.714844 131.570312 189.707031 C 131.640625 189.695312 131.710938 189.683594 131.785156 189.675781 C 131.855469 189.664062 131.929688 189.65625 132 189.648438 C 132.039062 189.644531 132.074219 189.640625 132.113281 189.636719 C 132.160156 189.628906 132.203125 189.625 132.25 189.621094 C 132.269531 189.617188 132.292969 189.613281 132.316406 189.613281 C 132.335938 189.613281 132.355469 189.609375 132.375 189.609375 C 132.421875 189.605469 132.46875 189.597656 132.515625 189.59375 C 132.566406 189.589844 132.617188 189.585938 132.671875 189.582031 C 132.703125 189.582031 132.734375 189.578125 132.765625 189.578125 C 132.816406 189.574219 132.867188 189.570312 132.917969 189.566406 C 132.996094 189.5625 133.074219 189.558594 133.152344 189.558594 C 133.191406 189.558594 133.226562 189.554688 133.265625 189.554688 C 133.320312 189.554688 133.371094 189.550781 133.425781 189.550781 C 133.476562 189.550781 133.527344 189.550781 133.578125 189.550781 C 133.6875 189.550781 133.792969 189.550781 133.902344 189.554688 C 133.953125 189.554688 134.007812 189.554688 134.058594 189.558594 C 134.113281 189.558594 134.164062 189.5625 134.214844 189.566406 C 134.269531 189.566406 134.324219 189.570312 134.378906 189.574219 C 134.429688 189.578125 134.480469 189.582031 134.53125 189.585938 C 134.585938 189.589844 134.640625 189.59375 134.695312 189.597656 C 134.742188 189.601562 134.792969 189.605469 134.839844 189.609375 C 135.007812 189.628906 135.171875 189.648438 135.332031 189.667969 Z M 135.332031 189.667969 " fill-opacity="1" fill-rule="nonzero"/><path fill="#ffffff" d="M 138.417969 184.410156 C 137.921875 184.515625 137.417969 184.578125 136.914062 184.628906 C 136.417969 184.730469 135.996094 184.492188 136.25 183.957031 C 136.472656 183.507812 137.164062 181.890625 137.773438 182.121094 C 138.292969 182.046875 138.824219 182.988281 139.128906 183.347656 C 139.644531 184.03125 139.050781 184.316406 138.417969 184.410156 Z M 138.417969 184.410156 " fill-opacity="1" fill-rule="nonzero"/><path fill="#ffffff" d="M 137.035156 183.917969 C 137.0625 183.914062 137.089844 183.914062 137.117188 183.910156 C 137.085938 183.902344 137.058594 183.894531 137.03125 183.882812 C 137.023438 183.894531 137.019531 183.910156 137.011719 183.921875 C 137.019531 183.921875 137.027344 183.917969 137.035156 183.917969 Z M 137.035156 183.917969 " fill-opacity="1" fill-rule="nonzero"/><path fill="#ffffff" d="M 139.558594 190.632812 C 139.605469 190.761719 139.402344 190.832031 139.359375 190.699219 C 139.320312 190.601562 139.28125 190.503906 139.238281 190.402344 C 139.171875 190.238281 139.105469 190.074219 139.039062 189.914062 C 138.972656 189.757812 138.910156 189.605469 138.847656 189.453125 C 138.84375 189.441406 138.839844 189.433594 138.835938 189.425781 C 138.792969 189.308594 138.746094 189.195312 138.699219 189.082031 C 138.648438 188.957031 138.597656 188.828125 138.546875 188.703125 C 138.503906 188.535156 138.378906 188.363281 138.414062 188.1875 C 138.449219 188.101562 138.585938 188.113281 138.609375 188.203125 C 138.664062 188.355469 138.71875 188.511719 138.777344 188.664062 C 138.808594 188.75 138.84375 188.832031 138.875 188.914062 C 138.941406 189.085938 139.011719 189.257812 139.082031 189.429688 C 139.1875 189.675781 139.289062 189.925781 139.386719 190.175781 C 139.414062 190.238281 139.4375 190.304688 139.464844 190.371094 C 139.5 190.472656 139.53125 190.550781 139.558594 190.632812 Z M 139.558594 190.632812 " fill-opacity="1" fill-rule="nonzero"/><path fill="#ffffff" d="M 141.046875 189.949219 C 140.996094 189.882812 140.945312 189.8125 140.894531 189.753906 C 140.484375 189.238281 140.09375 188.703125 139.71875 188.160156 C 139.671875 188.066406 139.777344 187.972656 139.863281 188.015625 C 139.917969 188.042969 139.949219 188.097656 139.980469 188.144531 C 140.382812 188.714844 140.808594 189.269531 141.222656 189.832031 C 141.300781 189.941406 141.125 190.0625 141.046875 189.949219 Z M 141.046875 189.949219 " fill-opacity="1" fill-rule="nonzero"/><path fill="#ffffff" d="M 142.574219 189.34375 C 141.878906 188.691406 141.207031 187.992188 140.523438 187.355469 C 140.511719 187.191406 140.707031 187.21875 140.792969 187.304688 C 141.34375 187.777344 141.839844 188.320312 142.363281 188.820312 C 142.484375 188.9375 142.601562 189.054688 142.71875 189.171875 C 142.832031 189.265625 142.683594 189.441406 142.574219 189.34375 Z M 142.574219 189.34375 " fill-opacity="1" fill-rule="nonzero"/><path fill="#ffffff" d="M 142.226562 181.257812 C 142.195312 181.199219 142.230469 181.132812 142.285156 181.109375 C 143.003906 180.699219 143.695312 180.246094 144.410156 179.835938 C 144.535156 179.765625 144.644531 179.960938 144.519531 180.027344 C 144.246094 180.195312 143.976562 180.367188 143.707031 180.535156 C 143.355469 180.75 143.007812 180.960938 142.644531 181.160156 C 142.523438 181.199219 142.332031 181.398438 142.226562 181.257812 Z M 142.226562 181.257812 " fill-opacity="1" fill-rule="nonzero"/><path fill="#ffffff" d="M 141.933594 180.128906 C 141.664062 179.996094 142.457031 179.410156 142.558594 179.261719 C 142.832031 178.996094 143.105469 178.726562 143.382812 178.464844 C 143.425781 178.425781 143.496094 178.425781 143.539062 178.46875 C 143.582031 178.515625 143.578125 178.582031 143.535156 178.625 C 143.296875 178.867188 143.058594 179.105469 142.820312 179.34375 C 142.570312 179.59375 142.300781 179.828125 142.0625 180.089844 C 142.039062 180.132812 141.980469 180.148438 141.933594 180.128906 Z M 141.933594 180.128906 " fill-opacity="1" fill-rule="nonzero"/><path fill="#ffffff" d="M 141.535156 179.445312 C 141.332031 179.34375 141.769531 178.875 141.832031 178.726562 C 141.992188 178.476562 142.164062 178.222656 142.335938 177.984375 C 142.523438 177.71875 142.703125 177.472656 142.890625 177.210938 C 142.980469 177.097656 143.160156 177.238281 143.066406 177.351562 C 143.019531 177.417969 142.976562 177.476562 142.9375 177.535156 C 142.597656 178.019531 142.261719 178.503906 141.933594 178.996094 C 141.847656 179.132812 141.753906 179.265625 141.667969 179.402344 C 141.644531 179.449219 141.582031 179.464844 141.535156 179.445312 Z M 141.535156 179.445312 " fill-opacity="1" fill-rule="nonzero"/><path fill="#ffffff" d="M 126.140625 189.671875 C 125.714844 189.292969 126.457031 188.800781 126.644531 189.339844 C 126.738281 189.628906 126.367188 189.871094 126.140625 189.671875 Z M 126.140625 189.671875 " fill-opacity="1" fill-rule="nonzero"/><path fill="#ffffff" d="M 130.863281 188.003906 C 130.828125 187.871094 130.914062 187.730469 131.046875 187.699219 C 131.179688 187.667969 131.316406 187.75 131.351562 187.882812 C 131.382812 188.015625 131.300781 188.152344 131.167969 188.1875 C 131.035156 188.21875 130.894531 188.136719 130.863281 188.003906 Z M 130.863281 188.003906 " fill-opacity="1" fill-rule="nonzero"/><path fill="#ffffff" d="M 134.746094 176.523438 C 134.652344 176.53125 134.570312 176.480469 134.480469 176.464844 C 134.222656 176.351562 134.277344 175.941406 134.53125 175.863281 C 134.960938 175.699219 135.230469 176.441406 134.746094 176.523438 Z M 134.746094 176.523438 " fill-opacity="1" fill-rule="nonzero"/><path fill="#ffffff" d="M 138.5 173.53125 C 138.464844 173.378906 138.558594 173.21875 138.714844 173.179688 C 138.871094 173.144531 139.03125 173.238281 139.066406 173.394531 C 139.105469 173.546875 139.007812 173.707031 138.855469 173.746094 C 138.699219 173.785156 138.539062 173.6875 138.5 173.53125 Z M 138.5 173.53125 " fill-opacity="1" fill-rule="nonzero"/><path fill="#ffffff" d="M 136.746094 179.4375 C 134.308594 179.4375 132.324219 177.460938 132.324219 175.03125 C 132.324219 172.601562 134.308594 170.625 136.746094 170.625 C 139.183594 170.625 141.164062 172.601562 141.164062 175.03125 C 141.164062 177.460938 139.183594 179.4375 136.746094 179.4375 Z M 136.746094 171.90625 C 135.015625 171.90625 133.609375 173.308594 133.609375 175.03125 C 133.609375 176.757812 135.015625 178.160156 136.746094 178.160156 C 138.472656 178.160156 139.882812 176.757812 139.882812 175.03125 C 139.878906 173.308594 138.472656 171.90625 136.746094 171.90625 Z M 136.746094 171.90625 " fill-opacity="1" fill-rule="nonzero"/><path fill="#ffffff" d="M 125.824219 192.300781 C 124.878906 191.460938 124.339844 190.257812 124.339844 189 C 124.339844 186.558594 126.332031 184.574219 128.777344 184.574219 C 131.222656 184.574219 133.214844 186.558594 133.214844 189 C 133.214844 189.378906 133.164062 189.757812 133.070312 190.121094 L 131.828125 189.796875 C 131.894531 189.539062 131.929688 189.269531 131.929688 189 C 131.929688 187.265625 130.515625 185.855469 128.777344 185.855469 C 127.039062 185.855469 125.625 187.265625 125.625 189 C 125.625 189.894531 126.007812 190.75 126.675781 191.347656 Z M 125.824219 192.300781 " fill-opacity="1" fill-rule="nonzero"/></svg>